<?xml version="1.0"?>
<svg version="1.1" xmlns="http://www.w3.org/2000/svg" width="250" height="100" style=""><path fill="#" d="M16.176,66.8l1.736,0l0-11.872q0-2.352,1.792-4.2q1.792-1.792,4.144-1.792t4.2,1.792q1.792,1.848,1.792,4.2l0,11.872l1.736,0l0-11.872q0-3.192-2.268-5.46t-5.46-2.268q-3.136,0-5.404,2.268t-2.268,5.46l0,11.872z M36.10752,66.828l1.764,0l0-19.684l-1.764,0l0,19.684z M55.05904,66.8l2.828,0l-12.516-9.996l12.516-9.632l-2.828,0l-10.752,8.568l0-8.568l-1.764,0l0,19.628l1.764,0l0-8.568z M69.30656,47.088q-3.136,0-5.264,2.268q-2.1,2.24-2.1,5.46l0,11.984l1.764,0l0-8.792l11.256,0l0,8.792l1.764,0l0-11.984q0-3.22-2.1-5.46q-2.184-2.268-5.32-2.268z M74.96256,56.272l-11.256,0l0-1.456q0-2.408,1.624-4.172q1.652-1.792,3.976-1.792t4.032,1.792q1.624,1.764,1.624,4.172l0,1.456z M92.3136,61.424q0-1.344,0.952-2.436q0.952-1.148,2.296-1.148l0.364,0l5.236,0l0-1.736l-5.236,0l-0.364,0q-1.428-0.28-2.338-1.232t-0.91-2.268q0-1.652,0.966-2.618t2.646-0.966l9.52,0l0-1.764l-9.52,0q-2.156,0-3.752,1.596q-1.596,1.54-1.596,3.752q0,1.4,0.532,2.548t1.568,1.652q-1.036,0.756-1.568,1.988t-0.532,2.632q0,2.184,1.596,3.724q1.624,1.624,3.752,1.624l9.52,0l0-1.848l-9.52,0q-1.68,0-2.646-0.952t-0.966-2.548z M118.04112,57.028l6.664-9.856l-2.128,0l-5.6,8.4l-5.936-8.4l-1.792,0l6.664,9.856l-7,9.8l2.128,0l5.936-8.4l5.6,8.4l1.792,0z M143.40464,66.8l0-1.764l-4.984,0q-3.472,0-5.824-2.352t-2.352-5.824q0-3.192,2.352-5.488t5.824-2.296l4.984,0l0-1.82l-4.984,0q-4.228,0-7.084,2.8q-2.856,2.772-2.856,6.804q0,4.284,2.856,7.084q2.8,2.856,7.084,2.856l4.984,0z M162.58016,47.144l-1.764,0l0,8.96l-11.816,0l0-8.96l-1.764,0l0,19.656l1.764,0l0-8.932l11.816,0l0,8.932l1.764,0l0-19.656z M174.33568,47.088q-3.136,0-5.264,2.268q-2.1,2.24-2.1,5.46l0,11.984l1.764,0l0-8.792l11.256,0l0,8.792l1.764,0l0-11.984q0-3.22-2.1-5.46q-2.184-2.268-5.32-2.268z M179.99168,56.272l-11.256,0l0-1.456q0-2.408,1.624-4.172q1.652-1.792,3.976-1.792t4.032,1.792q1.624,1.764,1.624,4.172l0,1.456z M186.0072,66.8l1.736,0l0-11.872q0-2.352,1.792-4.2q1.792-1.792,4.144-1.792t4.2,1.792q1.792,1.848,1.792,4.2l0,11.872l1.736,0l0-11.872q0-3.192-2.268-5.46t-5.46-2.268q-3.136,0-5.404,2.268t-2.268,5.46l0,11.872z M214.98272,48.88l5.404,0l0-1.764l-5.404,0q-4.032,0-6.832,2.856q-2.828,2.884-2.828,7.196q0,4.004,2.828,6.832t6.832,2.828l3.584,0l1.82,0l0-1.792l0-8.96l-1.82,0l-4.284,0l0,1.792l4.284,0l0,7.168l-3.584,0q-3.192,0-5.516-2.324t-2.324-5.544q0-3.5,2.324-5.908q2.296-2.38,5.516-2.38z M226.17824,61.424q0-1.344,0.952-2.436q0.952-1.148,2.296-1.148l0.364,0l5.236,0l0-1.736l-5.236,0l-0.364,0q-1.428-0.28-2.338-1.232t-0.91-2.268q0-1.652,0.966-2.618t2.646-0.966l9.52,0l0-1.764l-9.52,0q-2.156,0-3.752,1.596q-1.596,1.54-1.596,3.752q0,1.4,0.532,2.548t1.568,1.652q-1.036,0.756-1.568,1.988t-0.532,2.632q0,2.184,1.596,3.724q1.624,1.624,3.752,1.624l9.52,0l0-1.848l-9.52,0q-1.68,0-2.646-0.952t-0.966-2.548z"/><path fill="#" d=""/></svg>
